<svg id="drawing" xmlns="http://www.w3.org/2000/svg" version="1.1" xmlns:xlink="http://www.w3.org/1999/xlink" width="372" height="508" viewBox="330 54 372 508"><defs id="SvgjsDefs1001"><marker id="SvgjsMarker1031" markerWidth="16.23606797749979" markerHeight="10.550836550532098" refX="-1" refY="3.8990363547948754" viewBox="-1 -1.3763819204711738 16.23606797749979 10.550836550532098" orient="auto" markerUnits="userSpaceOnUse"><path id="SvgjsPath1032" d="M12 3.899036407470703L0 7.798072814941406V0Z " stroke="#323232" stroke-width="2" fill="#323232" transform="matrix(1,0,0,1,0,0)"></path></marker><marker id="SvgjsMarker1068" markerWidth="16.23606797749979" markerHeight="10.550836550532098" refX="-1" refY="3.8990363547948754" viewBox="-1 -1.3763819204711738 16.23606797749979 10.550836550532098" orient="auto" markerUnits="userSpaceOnUse"><path id="SvgjsPath1069" d="M12 3.899036407470703L0 7.798072814941406V0Z " stroke="#323232" stroke-width="2" fill="#323232" transform="matrix(1,0,0,1,0,0)"></path></marker><marker id="SvgjsMarker1075" markerWidth="16.23606797749979" markerHeight="10.550836550532098" refX="-1" refY="3.8990363547948754" viewBox="-1 -1.3763819204711738 16.23606797749979 10.550836550532098" orient="auto" markerUnits="userSpaceOnUse"><path id="SvgjsPath1076" d="M12 3.899036407470703L0 7.798072814941406V0Z " stroke="#323232" stroke-width="2" fill="#323232" transform="matrix(1,0,0,1,0,0)"></path></marker><marker id="SvgjsMarker1082" markerWidth="16.23606797749979" markerHeight="10.550836550532098" refX="-1" refY="3.8990363547948754" viewBox="-1 -1.3763819204711738 16.23606797749979 10.550836550532098" orient="auto" markerUnits="userSpaceOnUse"><path id="SvgjsPath1083" d="M12 3.899036407470703L0 7.798072814941406V0Z " stroke="#323232" stroke-width="2" fill="#323232" transform="matrix(1,0,0,1,0,0)"></path></marker></defs><g id="SvgjsG1007"><path id="SvgjsPath1008" d="M330 54H702V562H330V54Z " fill-opacity="0" fill="none"></path><g id="SvgjsG1009"><g id="SvgjsG1010" transform="translate(350 74)" opacity="1"><path id="SvgjsPath1011" d="M0 0L332 0L332 468L0 468Z " stroke-dasharray="none" stroke="#cfcfcf" stroke-width="2" fill="#e5e5e5" opacity="1"></path></g><g id="SvgjsG1012" transform="translate(350 74)" opacity="1"><path id="SvgjsPath1013" d="M0 4Q0 0 4 0L328 0Q332 0 332 4L332 49Q332 53 328 53L4 53Q0 53 0 49Z " stroke-dasharray="none" stroke="#323232" stroke-width="2" fill="#cce5ff" opacity="1"></path><g id="SvgjsG1014" transform="matrix(1 0 0 1 10 13.375)" fill="#ffffff"><text id="SvgjsText1015" font-family="微软雅黑,宋体" fill="#000000" font-size="21" font-weight="bold" font-style="normal" text-anchor="middle" text-decoration="blink" x="156" y="18">thinkPHP框架MVC</text></g></g><g id="SvgjsG1016" transform="translate(367 146)" opacity="1"><path id="SvgjsPath1017" d="M0 4Q0 0 4 0L294 0Q298 0 298 4L298 42Q298 46 294 46L4 46Q0 46 0 42Z " stroke-dasharray="none" stroke="#323232" stroke-width="2" fill="#ffffcc" opacity="1"></path><g id="SvgjsG1018" transform="matrix(1 0 0 1 10 14.875)" fill="#ffffff"><text id="SvgjsText1019" font-family="微软雅黑,黑体,Arial,宋体" fill="#000000" font-size="13" font-weight="normal" font-style="normal" text-anchor="middle" text-decoration="blink" x="139" y="12">用户浏览器请求</text></g></g><g id="SvgjsG1020" transform="translate(359 217)" opacity="1"><path id="SvgjsPath1021" d="M0 0L314 0L314 55L0 55Z " stroke-dasharray="none" stroke="#323232" stroke-width="2" fill="#ff9999" opacity="1"></path><g id="SvgjsG1022" transform="matrix(1 0 0 1 10 19.375)" fill="#ffffff"><text id="SvgjsText1023" font-family="微软雅黑,黑体,Arial,宋体" fill="#000000" font-size="13" font-weight="normal" font-style="normal" text-anchor="middle" text-decoration="blink" x="147" y="12">                                  模板切割，继承，渲染</text></g></g><g id="SvgjsG1024" transform="translate(358 217)" opacity="1"><path id="SvgjsPath1025" d="M0 4Q0 0 4 0L110 0Q114 0 114 4L114 51Q114 55 110 55L4 55Q0 55 0 51Z " stroke-dasharray="none" stroke="#323232" stroke-width="2" fill="#ffcccc" opacity="1"></path><g id="SvgjsG1026" transform="matrix(1 0 0 1 10 11.25)" fill="#ffffff"><text id="SvgjsText1027" font-family="微软雅黑,黑体,Arial,宋体" fill="#000000" font-size="13" font-weight="normal" font-style="normal" text-anchor="middle" text-decoration="blink" x="47" y="12">视图层</text><text id="SvgjsText1028" font-family="微软雅黑,黑体,Arial,宋体" fill="#000000" font-size="13" font-weight="normal" font-style="normal" text-anchor="middle" text-decoration="blink" x="47" y="28.25">View</text></g></g><g id="SvgjsG1029"><path id="SvgjsPath1030" d="M516 192L516 204.5L516 204.5L516 205.5 " stroke-dasharray="none" stroke="#323232" stroke-width="2" fill="none" marker-end="url(#SvgjsMarker1031)"></path><g id="SvgjsG1033" transform="matrix(1 0 0 1 516 190.625)" fill="#ffffff"><path id="SvgjsPath1034" d="M0 0H0V0H0V0Z " fill="#ffffff" transform="translate(0 0)"></path><text id="SvgjsText1035" font-family="Microsoft Yahei,宋体" fill="#000000" font-size="13" font-weight="normal" font-style="normal" text-anchor="middle" text-decoration="blink" x="0" y="0"></text></g></g><g id="SvgjsG1036" transform="translate(359 300)" opacity="1"><path id="SvgjsPath1037" d="M0 0L314 0L314 55L0 55Z " stroke-dasharray="none" stroke="#323232" stroke-width="2" fill="#80ff00" opacity="1"></path><g id="SvgjsG1038" transform="matrix(1 0 0 1 10 3.125)" fill="#ffffff"><text id="SvgjsText1039" font-family="微软雅黑,黑体,Arial,宋体" fill="#000000" font-size="13" font-weight="normal" font-style="normal" text-anchor="middle" text-decoration="blink" x="147" y="12">                                  接收数据，验证数据，</text><text id="SvgjsText1040" font-family="微软雅黑,黑体,Arial,宋体" fill="#000000" font-size="13" font-weight="normal" font-style="normal" text-anchor="middle" text-decoration="blink" x="147" y="28.25">                               调用Logic处理业务逻辑</text><text id="SvgjsText1041" font-family="微软雅黑,黑体,Arial,宋体" fill="#000000" font-size="13" font-weight="normal" font-style="normal" text-anchor="middle" text-decoration="blink" x="147" y="44.5">                     返回数据给页面</text></g></g><g id="SvgjsG1042" transform="translate(358 300)" opacity="1"><path id="SvgjsPath1043" d="M0 4Q0 0 4 0L110 0Q114 0 114 4L114 51Q114 55 110 55L4 55Q0 55 0 51Z " stroke-dasharray="none" stroke="#323232" stroke-width="2" fill="#99ff99" opacity="1"></path><g id="SvgjsG1044" transform="matrix(1 0 0 1 10 11.25)" fill="#ffffff"><text id="SvgjsText1045" font-family="微软雅黑,黑体,Arial,宋体" fill="#000000" font-size="13" font-weight="normal" font-style="normal" text-anchor="middle" text-decoration="blink" x="47" y="12">控制器</text><text id="SvgjsText1046" font-family="微软雅黑,黑体,Arial,宋体" fill="#000000" font-size="13" font-weight="normal" font-style="normal" text-anchor="middle" text-decoration="blink" x="47" y="28.25">Controller</text></g></g><g id="SvgjsG1047" transform="translate(359 381)" opacity="1"><path id="SvgjsPath1048" d="M0 0L314 0L314 55L0 55Z " stroke-dasharray="none" stroke="#323232" stroke-width="2" fill="#00cccc" opacity="1"></path><g id="SvgjsG1049" transform="matrix(1 0 0 1 10 11.25)" fill="#ffffff"><text id="SvgjsText1050" font-family="微软雅黑,黑体,Arial,宋体" fill="#000000" font-size="13" font-weight="normal" font-style="normal" text-anchor="middle" text-decoration="blink" x="147" y="12">                            封装业务逻辑</text><text id="SvgjsText1051" font-family="微软雅黑,黑体,Arial,宋体" fill="#000000" font-size="13" font-weight="normal" font-style="normal" text-anchor="middle" text-decoration="blink" x="147" y="28.25">                             封装公用的逻辑代码</text></g></g><g id="SvgjsG1052" transform="translate(358 381)" opacity="1"><path id="SvgjsPath1053" d="M0 4Q0 0 4 0L110 0Q114 0 114 4L114 51Q114 55 110 55L4 55Q0 55 0 51Z " stroke-dasharray="none" stroke="#323232" stroke-width="2" fill="#99ffff" opacity="1"></path><g id="SvgjsG1054" transform="matrix(1 0 0 1 10 11.25)" fill="#ffffff"><text id="SvgjsText1055" font-family="微软雅黑,黑体,Arial,宋体" fill="#000000" font-size="13" font-weight="normal" font-style="normal" text-anchor="middle" text-decoration="blink" x="47" y="12">逻辑层</text><text id="SvgjsText1056" font-family="微软雅黑,黑体,Arial,宋体" fill="#000000" font-size="13" font-weight="normal" font-style="normal" text-anchor="middle" text-decoration="blink" x="47" y="28.25">Logic</text></g></g><g id="SvgjsG1057" transform="translate(359 463)" opacity="1"><path id="SvgjsPath1058" d="M0 0L314 0L314 55L0 55Z " stroke-dasharray="none" stroke="#323232" stroke-width="2" fill="#6666ff" opacity="1"></path><g id="SvgjsG1059" transform="matrix(1 0 0 1 10 19.375)" fill="#ffffff"><text id="SvgjsText1060" font-family="微软雅黑,黑体,Arial,宋体" fill="#000000" font-size="13" font-weight="normal" font-style="normal" text-anchor="middle" text-decoration="blink" x="147" y="12">                                数据库CURD，缓存存取</text></g></g><g id="SvgjsG1061" transform="translate(358 463)" opacity="1"><path id="SvgjsPath1062" d="M0 4Q0 0 4 0L110 0Q114 0 114 4L114 51Q114 55 110 55L4 55Q0 55 0 51Z " stroke-dasharray="none" stroke="#323232" stroke-width="2" fill="#9999ff" opacity="1"></path><g id="SvgjsG1063" transform="matrix(1 0 0 1 10 11.25)" fill="#ffffff"><text id="SvgjsText1064" font-family="微软雅黑,黑体,Arial,宋体" fill="#000000" font-size="13" font-weight="normal" font-style="normal" text-anchor="middle" text-decoration="blink" x="47" y="12">模型-数据层</text><text id="SvgjsText1065" font-family="微软雅黑,黑体,Arial,宋体" fill="#000000" font-size="13" font-weight="normal" font-style="normal" text-anchor="middle" text-decoration="blink" x="47" y="28.25">Model</text></g></g><g id="SvgjsG1066"><path id="SvgjsPath1067" d="M516 272L516 286L516 286L516 287 " stroke-dasharray="none" stroke="#323232" stroke-width="2" fill="none" marker-end="url(#SvgjsMarker1068)"></path><g id="SvgjsG1070" transform="matrix(1 0 0 1 516 271.375)" fill="#ffffff"><path id="SvgjsPath1071" d="M0 0H0V0H0V0Z " fill="#ffffff" transform="translate(0 0)"></path><text id="SvgjsText1072" font-family="Microsoft Yahei,宋体" fill="#000000" font-size="13" font-weight="normal" font-style="normal" text-anchor="middle" text-decoration="blink" x="0" y="0"></text></g></g><g id="SvgjsG1073"><path id="SvgjsPath1074" d="M516 355L516 368L516 368L516 369 " stroke-dasharray="none" stroke="#323232" stroke-width="2" fill="none" marker-end="url(#SvgjsMarker1075)"></path><g id="SvgjsG1077" transform="matrix(1 0 0 1 516 353.875)" fill="#ffffff"><path id="SvgjsPath1078" d="M0 0H0V0H0V0Z " fill="#ffffff" transform="translate(0 0)"></path><text id="SvgjsText1079" font-family="Microsoft Yahei,宋体" fill="#000000" font-size="13" font-weight="normal" font-style="normal" text-anchor="middle" text-decoration="blink" x="0" y="0"></text></g></g><g id="SvgjsG1080"><path id="SvgjsPath1081" d="M516 436L516 449.5L516 449.5L516 450.5 " stroke-dasharray="none" stroke="#323232" stroke-width="2" fill="none" marker-end="url(#SvgjsMarker1082)"></path><g id="SvgjsG1084" transform="matrix(1 0 0 1 516 435.125)" fill="#ffffff"><path id="SvgjsPath1085" d="M0 0H0V0H0V0Z " fill="#ffffff" transform="translate(0 0)"></path><text id="SvgjsText1086" font-family="Microsoft Yahei,宋体" fill="#000000" font-size="13" font-weight="normal" font-style="normal" text-anchor="middle" text-decoration="blink" x="0" y="0"></text></g></g></g></g></svg>